<?xml version="1.0" encoding="UTF-8"?>
<svg width="68px" height="68px" viewBox="0 0 68 68" version="1.1" xmlns="http://www.w3.org/2000/svg" xmlns:xlink="http://www.w3.org/1999/xlink">
    <!-- Generator: Sketch 52.1 (67048) - http://www.bohemiancoding.com/sketch -->
    <title>Group_279</title>
    <desc>Created with Sketch.</desc>
    <defs>
        <rect id="path-1" x="0" y="0" width="67.071" height="67.068"></rect>
    </defs>
    <g id="Page-1" stroke="none" stroke-width="1" fill="none" fill-rule="evenodd">
        <g id="Group_297" transform="translate(-278.000000, -382.000000)">
            <g id="Group_279" transform="translate(278.509000, 382.504000)">
                <g id="Group_278-Clipped">
                    <mask id="mask-2" fill="white">
                        <use xlink:href="#path-1"></use>
                    </mask>
                    <g id="Rectangle_212"></g>
                    <g id="Group_278" mask="url(#mask-2)">
                        <g transform="translate(0.000000, -1.000000)">
                            <path d="M33.537,68.068 C19.9734901,68.0679999 7.74558707,59.8973785 2.55533685,47.3662132 C-2.63491338,34.8350479 0.234663216,20.4112413 9.82594207,10.8208205 C19.4172209,1.23039972 33.8412842,-1.63788644 46.3719851,3.55348488 C58.902686,8.74485619 67.0722134,20.9734901 67.071,34.537 C67.068239,53.0556877 52.0556879,68.0668958 33.537,68.068" id="Path_231" fill="#909090"></path>
                            <path d="M63,34.539 C62.9987864,46.4566619 55.8185593,57.2000655 44.8075336,61.7594493 C33.7965079,66.3188331 21.123186,63.7962758 12.6972705,55.3680722 C4.27135503,46.9398686 1.75223882,34.2658623 6.31461212,23.2560749 C10.8769854,12.2462876 21.6223382,5.06897772 33.54,5.071 C41.35442,5.07179557 48.8484364,8.17696176 54.3733157,13.7033413 C59.8981949,19.2297208 63.0013262,26.72458 63,34.539" id="Path_232" fill="#070F19"></path>
                            <polygon id="Path_233" fill="#909090" points="9.503 26.116 13.57 26.116 13.57 40.725 19.821 40.725 19.821 44.148 9.503 44.148"></polygon>
                            <path d="M27.917,44.148 L27.917,26.116 L32.681,26.116 L36.427,32.725 C37.5307142,34.7246308 38.5134794,36.7886713 39.37,38.906 L39.424,38.906 C39.188315,36.3974515 39.0808418,33.878507 39.102,31.359 L39.102,26.116 L42.847,26.116 L42.847,44.148 L38.565,44.148 L34.711,37.193 C33.5503304,35.1303904 32.5053805,33.0047687 31.581,30.826 L31.474,30.826 C31.608,33.234 31.66,35.776 31.66,38.719 L31.66,44.148 L27.917,44.148" id="Path_234" fill="#909090"></path>
                            <path d="M44.957,26.115 L48.999,26.115 L48.999,34.09 L49.053,34.09 C49.453,33.39 49.883,32.752 50.311,32.11 L59.736,18.232 L62.069,22.721 L53.436,33.796 L59.698,44.148 L54.966,44.148 L50.524,36.364 L48.999,38.264 L48.999,44.148 L44.957,44.148 L44.957,26.115" id="Path_235" fill="#909090"></path>
                            <rect id="Rectangle_211" fill="#909090" x="21.751" y="26.123" width="4.122" height="18.025"></rect>
                            <path d="M26.476,20.792 C26.4780232,21.8699401 25.8302447,22.8428647 24.834938,23.2567771 C23.8396313,23.6706896 22.6929782,23.4440049 21.9300425,22.6825011 C21.1671067,21.9209973 20.9382683,20.7747721 21.3503102,19.7786896 C21.7623521,18.782607 22.734058,18.1330019 23.812,18.133 C25.2828961,18.1329999 26.4754479,19.325104 26.476,20.796" id="Path_236" fill="#909090"></path>
                        </g>
                    </g>
                </g>
            </g>
        </g>
    </g>
</svg>