<?xml version="1.0" encoding="UTF-8"?>
<svg width="98px" height="113px" viewBox="0 0 98 113" version="1.1" xmlns="http://www.w3.org/2000/svg" xmlns:xlink="http://www.w3.org/1999/xlink">
    <!-- Generator: Sketch 52.1 (67048) - http://www.bohemiancoding.com/sketch -->
    <title>Group_238</title>
    <desc>Created with Sketch.</desc>
    <defs>
        <rect id="path-1" x="0" y="0" width="97.022" height="112.14"></rect>
        <rect id="path-3" x="0" y="0" width="97.022" height="112.14"></rect>
        <rect id="path-5" x="0" y="0" width="97.022" height="112.14"></rect>
        <rect id="path-7" x="0" y="0" width="97.022" height="112.14"></rect>
        <rect id="path-9" x="0" y="0" width="97.022" height="112.14"></rect>
    </defs>
    <g id="Page-1" stroke="none" stroke-width="1" fill="none" fill-rule="evenodd">
        <g id="Group_238" transform="translate(0.500000, 0.809000)">
            <polygon id="Path_38" stroke="#24EA9B" stroke-width="3" stroke-linejoin="round" points="59.578 62.585 48.606 69.109 48.606 56.027 59.578 49.502"></polygon>
            <polygon id="Path_39" stroke="#24EA9B" stroke-width="3" stroke-linejoin="round" points="37.634 62.585 48.606 69.109 48.606 56.027 37.634 49.5"></polygon>
            <polygon id="Path_40" stroke="#24EA9B" stroke-width="3" stroke-linejoin="round" points="49.011 43.03 37.635 49.501 48.607 56.026 59.579 49.501"></polygon>
            <polygon id="Path_41" stroke="#24EA9B" stroke-width="3" stroke-linejoin="round" points="59.578 20.869 48.606 27.393 48.606 14.311 59.578 7.786"></polygon>
            <polygon id="Path_42" stroke="#24EA9B" stroke-width="3" stroke-linejoin="round" points="37.634 20.869 48.606 27.393 48.606 14.311 37.634 7.786"></polygon>
            <g id="Group_71">
                <g id="Group_70-Clipped">
                    <mask id="mask-2" fill="white">
                        <use xlink:href="#path-1"></use>
                    </mask>
                    <g id="Rectangle_121"></g>
                    <g id="Group_70" mask="url(#mask-2)" stroke="#24EA9B" stroke-linejoin="round" stroke-width="3">
                        <g transform="translate(37.000000, 1.000000)">
                            <polygon id="Path_43" points="12.011 0.315 0.635 6.786 11.606 13.315 22.578 6.79"></polygon>
                            <polygon id="Path_44" points="22.578 103.301 11.606 109.825 11.606 96.743 22.578 90.218"></polygon>
                            <polygon id="Path_45" points="0.634 103.301 11.606 109.825 11.606 96.743 0.634 90.218"></polygon>
                        </g>
                    </g>
                </g>
            </g>
            <polygon id="Path_46" stroke="#24EA9B" stroke-width="3" stroke-linejoin="round" points="49.011 84.747 37.635 91.218 48.607 97.743 59.579 91.218"></polygon>
            <polygon id="Path_47" stroke="#24EA9B" stroke-width="3" stroke-linejoin="round" points="23.259 41.831 12.287 48.355 12.287 35.268 23.259 28.748"></polygon>
            <g id="Group_73">
                <g id="Group_72-Clipped">
                    <mask id="mask-4" fill="white">
                        <use xlink:href="#path-3"></use>
                    </mask>
                    <g id="Rectangle_121"></g>
                    <g id="Group_72" mask="url(#mask-4)" stroke="#24EA9B" stroke-linejoin="round" stroke-width="3">
                        <g transform="translate(1.000000, 22.000000)">
                            <polygon id="Path_48" points="0.315 19.831 11.287 26.355 11.287 13.268 0.315 6.748"></polygon>
                            <polygon id="Path_49" points="11.691 0.277 0.315 6.748 11.287 13.273 22.259 6.748"></polygon>
                        </g>
                    </g>
                </g>
            </g>
            <polygon id="Path_50" stroke="#24EA9B" stroke-width="3" stroke-linejoin="round" points="23.259 83.529 12.287 90.053 12.287 76.97 23.259 70.445"></polygon>
            <g id="Group_75">
                <g id="Group_74-Clipped">
                    <mask id="mask-6" fill="white">
                        <use xlink:href="#path-5"></use>
                    </mask>
                    <g id="Rectangle_121"></g>
                    <g id="Group_74" mask="url(#mask-6)" stroke="#24EA9B" stroke-linejoin="round" stroke-width="3">
                        <g transform="translate(1.000000, 28.000000)">
                            <polygon id="Path_51" points="0.315 55.529 11.287 62.053 11.287 48.97 0.315 42.446"></polygon>
                            <polygon id="Path_52" points="11.691 35.975 0.315 42.445 11.287 48.97 22.259 42.445"></polygon>
                            <polygon id="Path_53" points="94.708 13.831 83.736 20.355 83.736 7.268 94.708 0.743"></polygon>
                        </g>
                    </g>
                </g>
            </g>
            <polygon id="Path_54" stroke="#24EA9B" stroke-width="3" stroke-linejoin="round" points="73.763 41.831 84.735 48.355 84.735 35.268 73.763 28.748"></polygon>
            <g id="Group_77">
                <g id="Group_76-Clipped">
                    <mask id="mask-8" fill="white">
                        <use xlink:href="#path-7"></use>
                    </mask>
                    <g id="Rectangle_121"></g>
                    <g id="Group_76" mask="url(#mask-8)" stroke="#24EA9B" stroke-linejoin="round" stroke-width="3">
                        <g transform="translate(73.000000, 22.000000)">
                            <polygon id="Path_55" points="12.137 0.277 0.76 6.748 11.737 13.273 22.709 6.748"></polygon>
                            <polygon id="Path_56" points="22.708 61.529 11.736 68.053 11.736 54.97 22.708 48.445"></polygon>
                        </g>
                    </g>
                </g>
            </g>
            <polygon id="Path_57" stroke="#24EA9B" stroke-width="3" stroke-linejoin="round" points="73.763 83.529 84.735 90.053 84.735 76.97 73.763 70.445"></polygon>
            <g id="Group_79">
                <g id="Group_78-Clipped">
                    <mask id="mask-10" fill="white">
                        <use xlink:href="#path-9"></use>
                    </mask>
                    <g id="Rectangle_121"></g>
                    <g id="Group_78" mask="url(#mask-10)" stroke="#24EA9B" stroke-linejoin="round" stroke-width="3">
                        <g transform="translate(73.000000, 63.000000)" id="Path_58">
                            <polygon points="12.137 0.975 0.764 7.445 11.736 13.97 22.708 7.445"></polygon>
                        </g>
                    </g>
                </g>
            </g>
            <path d="M48.606,27.393 L48.606,43.03" id="Line_19" stroke="#24EA9B" stroke-width="3" stroke-linejoin="round"></path>
            <path d="M23.259,70.447 L37.634,62.585" id="Line_20" stroke="#24EA9B" stroke-width="3" stroke-linejoin="round"></path>
            <path d="M59.578,62.585 L73.763,70.447" id="Line_21" stroke="#24EA9B" stroke-width="3" stroke-linejoin="round"></path>
            <path d="M73.763,83.529 L59.578,91.218" id="Line_22" stroke="#24EA9B" stroke-width="3" stroke-linejoin="round"></path>
            <path d="M37.634,91.218 L23.259,83.529" id="Line_23" stroke="#24EA9B" stroke-width="3" stroke-linejoin="round"></path>
            <path d="M12.287,48.355 L12.287,63.975" id="Line_24" stroke="#24EA9B" stroke-width="3" stroke-linejoin="round"></path>
            <path d="M84.736,48.355 L84.736,63.975" id="Line_25" stroke="#24EA9B" stroke-width="3" stroke-linejoin="round"></path>
            <path d="M37.634,20.869 L23.259,28.748" id="Line_26" stroke="#24EA9B" stroke-width="3" stroke-linejoin="round"></path>
            <path d="M59.578,20.869 L73.763,28.748" id="Line_27" stroke="#24EA9B" stroke-width="3" stroke-linejoin="round"></path>
        </g>
    </g>
</svg>