<?xml version="1.0" encoding="UTF-8"?>
<svg width="246px" height="246px" viewBox="0 0 246 246" version="1.1" xmlns="http://www.w3.org/2000/svg" xmlns:xlink="http://www.w3.org/1999/xlink">
    <!-- Generator: Sketch 52.1 (67048) - http://www.bohemiancoding.com/sketch -->
    <title>Group_280</title>
    <desc>Created with Sketch.</desc>
    <defs>
        <rect id="path-1" x="0" y="0" width="245.071" height="245.061"></rect>
    </defs>
    <g id="Page-1" stroke="none" stroke-width="1" fill="none" fill-rule="evenodd">
        <g id="Group_297" transform="translate(-328.000000, -49.000000)">
            <g id="Group_280" transform="translate(328.000000, 49.000000)">
                <g id="Group_278-2-Clipped">
                    <mask id="mask-2" fill="white">
                        <use xlink:href="#path-1"></use>
                    </mask>
                    <g id="Rectangle_212-2"></g>
                    <g id="Group_278-2" mask="url(#mask-2)">
                        <g transform="translate(0.000000, -1.000000)">
                            <path d="M122.543,246.061 C72.9826537,246.062213 28.3018515,216.208181 9.33602163,170.420352 C-9.62980827,124.632524 0.854516439,71.9284799 35.8999744,36.8850241 C70.9454324,1.8415682 123.650076,-8.63974544 169.43682,10.3287004 C215.223565,29.2971461 245.075045,73.9796539 245.071,123.54 C245.062165,191.205553 190.208554,246.056031 122.543,246.061" id="Path_231-2" fill="#000000"></path>
                            <path d="M230.196,123.543 C230.193169,167.087901 203.959747,206.343366 163.728383,223.004568 C123.497018,239.665771 77.1906234,230.451559 46.4018739,199.658519 C15.6131244,168.86548 6.40536393,122.557802 23.0721719,82.3287588 C39.7389799,42.099716 78.9980994,15.8717644 122.543,15.875 C151.096625,15.8760608 178.480243,27.2204404 198.669298,47.4123085 C218.858353,67.6041766 230.198918,94.9893756 230.196,123.543" id="Path_232-2" fill="#F7F7F7"></path>
                            <polygon id="Path_233-2" fill="#000000" points="34.722 92.771 49.584 92.771 49.584 146.151 72.424 146.151 72.424 158.66 34.724 158.66"></polygon>
                            <path d="M102.007,158.66 L101.996,92.771 L119.404,92.771 L133.093,116.921 C137.126137,124.228166 140.717255,131.770716 143.847,139.508 L144.047,139.508 C143.183547,130.340791 142.7887,121.135475 142.864,111.928 L142.864,92.771 L156.558,92.771 L156.558,158.66 L140.913,158.66 L126.832,133.248 C122.591242,125.711217 118.773335,117.944201 115.396,109.983 L115.004,109.983 C115.494,118.783 115.684,128.071 115.684,138.824 L115.684,158.661 L102.007,158.661" id="Path_234-2" fill="#000000"></path>
                            <path d="M164.268,92.771 L179.036,92.771 L179.036,121.912 L179.236,121.912 C180.703,119.369 182.268,117.023 183.836,114.677 L218.288,63.966 L226.813,80.366 L195.27,120.834 L218.147,158.66 L200.839,158.66 L184.607,130.218 L179.036,137.162 L179.036,158.662 L164.268,158.662 L164.268,92.771" id="Path_235-2" fill="#000000"></path>
                            <rect id="Rectangle_211-2" fill="#000000" x="79.477" y="92.797" width="15.063" height="65.863"></rect>
                            <path d="M96.742,73.317 C96.7452363,77.2543574 94.37592,80.8058169 90.7392045,82.3148214 C87.102489,83.8238258 82.9148407,82.9930875 80.1295632,80.2100993 C77.3442856,77.4271111 76.5101042,73.2401474 78.0161177,69.6021923 C79.5221312,65.9642372 83.0716412,63.5920013 87.009,63.592 C92.3823688,63.5931029 96.7386883,67.9476321 96.742,73.321" id="Path_236-2" fill="#000000"></path>
                        </g>
                    </g>
                </g>
            </g>
        </g>
    </g>
</svg>