<?xml version="1.0" encoding="UTF-8"?>
<svg width="352px" height="254px" viewBox="0 0 352 254" version="1.1" xmlns="http://www.w3.org/2000/svg" xmlns:xlink="http://www.w3.org/1999/xlink">
    <!-- Generator: Sketch 52.1 (67048) - http://www.bohemiancoding.com/sketch -->
    <title>bfa_logo</title>
    <desc>Created with Sketch.</desc>
    <defs>
        <radialGradient cx="49.8033%" cy="102.3%" fx="49.8033%" fy="102.3%" r="99.5175273%" gradientTransform="translate(0.498033,1.023000),scale(0.488914,1.000000),translate(-0.498033,-1.023000)" id="radialGradient-1">
            <stop stop-color="#84D0D0" offset="0%"></stop>
            <stop stop-color="#6A9AD1" offset="100%"></stop>
        </radialGradient>
    </defs>
    <g id="Page-1" stroke="none" stroke-width="1" fill="none" fill-rule="evenodd">
        <g id="bfa_logo" transform="translate(0.000000, 0.883000)">
            <path d="M175.633,135.236 C165.951274,135.235998 156.666466,139.083827 149.822891,145.932279 C142.979316,152.78073 139.138101,162.068277 139.144991,171.75 L212.145,171.75 C212.145,151.584656 195.798344,135.237105 175.633,135.236 Z" id="Path_30" fill="#E5B449"></path>
            <path d="M4.06,171.75 L4.06,139.5 L59.889,171.75 L115.744,139.5 L115.744,171.75 L119.804,171.75 L119.804,137.15 L175.633,104.923 L231.488,137.15 L231.488,171.75 L235.548,171.75 L235.548,137.15 L263.463,121.037 L289.363,106.084 L289.363,171.647 L293.423,171.647 L293.423,106.086 L347.235,137.153 L347.235,171.753 L351.295,171.753 L351.295,134.833 L293.295,101.421 L293.295,34.6 L233.505,0 L175.633,33.412 L117.761,0 L58,34.6 L58,101.424 L0,134.833 L0,171.75 L4.06,171.75 Z M235.548,5.85 L289.36,36.917 L289.36,99.076 L235.548,68.085 L235.548,5.85 Z M287.318,102.581 L261.446,117.534 L233.506,133.647 L179.694,102.58 L233.506,71.513 L287.318,102.581 Z M177.676,37.018 L231.488,5.85 L231.488,68.085 L177.676,99.076 L177.676,37.018 Z M173.616,101.418 L119.8,132.488 L119.8,70.329 L173.612,39.262 L173.616,101.418 Z M117.761,4.69 L171.472,35.757 L117.761,66.824 L63.949,35.757 L117.761,4.69 Z M61.932,39.262 L115.744,70.329 L115.744,132.488 L89.844,117.535 L61.932,101.421 L61.932,39.262 Z M59.889,104.825 L87.829,121.039 L113.729,135.992 L59.889,167.06 L6.077,135.993 L59.889,104.825 Z" id="Path_31" fill="url(#radialGradient-1)" fill-rule="nonzero"></path>
            <path d="M0.227,185.416 L14.121,185.416 C20.829,185.416 25.67,189.123 25.67,195.503 C25.7818352,199.08739 23.818427,202.415411 20.627,204.051 C24.7241475,205.411033 27.4008686,209.348858 27.158,213.659 C27.158,221.224 21.358,224.959 14.398,224.959 L0.227,224.959 L0.227,185.416 Z M14.121,202.116 C15.7240495,202.185029 17.2802319,201.565936 18.3977771,200.414578 C19.5153223,199.26322 20.0877678,197.689281 19.971,196.089 C20.0974925,194.483995 19.5074744,192.905253 18.3593443,191.776609 C17.2112142,190.647965 15.6226045,190.085055 14.02,190.239 L5.8,190.239 L5.8,202.116 L14.121,202.116 Z M14.751,220.297 C16.5906766,220.451229 18.4054242,219.790775 19.7156378,218.490184 C21.0258514,217.189593 21.6996643,215.379763 21.559,213.539 C21.6505193,211.701838 20.9539036,209.912893 19.6440891,208.621411 C18.3342747,207.329929 16.5356896,206.658597 14.7,206.776 L5.8,206.776 L5.8,220.342 L14.751,220.297 Z M36.387,185.416 L41.96,185.416 L41.96,220.291 L59.738,220.291 L59.738,225.107 L36.387,225.107 L36.387,185.416 Z M83.845,184.735 C89.2398463,184.640367 94.4440575,186.729534 98.2760051,190.528152 C102.107953,194.32677 104.242503,199.512533 104.195,204.908 C104.456063,212.362017 100.628335,219.364306 94.2129666,223.168722 C87.7975986,226.973137 79.8174014,226.973137 73.4020334,223.168722 C66.9866653,219.364306 63.1589372,212.362017 63.42,204.908 C63.4201139,199.514185 65.5802705,194.345058 69.4180619,190.554992 C73.2558532,186.764927 78.4516059,184.669621 83.845,184.737 L83.845,184.735 Z M83.845,220.669 C87.8672799,220.537709 91.6715206,218.809352 94.4163069,215.866204 C97.1610933,212.923056 98.6202344,209.007654 98.471,204.986 C98.6933225,199.602811 95.9481174,194.530607 91.3196694,191.772778 C86.6912215,189.014949 80.9237785,189.014949 76.2953306,191.772778 C71.6668826,194.530607 68.9216775,199.602811 69.144,204.986 C68.9943538,209.020437 70.4633122,212.947358 73.2240586,215.893093 C75.9848051,218.838828 79.8083413,220.559035 83.844,220.671 L83.845,220.669 Z M129.79,184.737 C135.101695,184.533091 140.284083,186.405336 144.239,189.957 L141.49,194.168 C138.28083,191.444034 134.224883,189.919784 130.016,189.856 C126.019282,189.774198 122.168417,191.357485 119.385097,194.226906 C116.601777,197.096327 115.136509,200.993628 115.34,204.986 C115.125807,209.041845 116.576563,213.009359 119.356529,215.970364 C122.136494,218.931369 126.004718,220.629222 130.066,220.671 C134.662644,220.582988 139.049829,218.73253 142.321,215.502 L145.321,219.385 C141.242281,223.488593 135.673283,225.761948 129.888,225.685 C118.551527,225.685 109.3615,216.494973 109.3615,205.1585 C109.3615,193.822027 118.551527,184.632 129.888,184.632 L129.79,184.737 Z M153.821,185.416 L159.394,185.416 L159.394,202.116 L175.331,185.416 L181.559,185.416 L164.059,204.253 L182.24,225.006 L175.94,225.006 L159.444,206.801 L159.444,225.007 L153.821,225.007 L153.821,185.416 Z M204,184.916 C209.223058,184.687357 214.330893,186.495373 218.247,189.959 L216.154,192.808 C212.814031,190.022603 208.603003,188.496725 204.254,188.496 C199.91374,188.463652 195.751037,190.216981 192.74188,193.344901 C189.732723,196.47282 188.141757,200.700241 188.342,205.036 C188.342,214.492 194.974,222.183 204.355,222.183 C209.117694,222.108351 213.668814,220.20289 217.064,216.862 L219.384,219.662 C215.368269,223.653644 209.915636,225.862086 204.254,225.79 C198.787393,225.869445 193.528877,223.696343 189.713157,219.78094 C185.897436,215.865538 183.860636,210.552741 184.081,205.09 C183.921402,199.736636 185.960202,194.551284 189.723121,190.740193 C193.48604,186.929101 198.645039,184.824509 204,184.916 Z M227.754,185.572 L231.637,185.572 L231.637,203.572 L254.685,203.572 L254.685,185.572 L258.568,185.572 L258.568,225.112 L254.685,225.112 L254.685,207.054 L231.74,207.054 L231.74,225.109 L227.756,225.109 L227.754,185.572 Z M289.454,212.529 L273.524,212.529 L269.035,225.137 L264.925,225.137 L279.425,185.597 L283.611,185.597 L298.111,225.137 L294,225.137 L289.454,212.529 Z M281.46,189.683 C281.46,189.683 280.603,192.961 279.947,194.726 L274.647,209.074 L288.264,209.074 L283.069,194.726 C282.413,192.885 281.556,189.683 281.556,189.683 L281.46,189.683 Z M304.56,185.573 L308.443,185.573 L308.443,225.113 L304.56,225.113 L304.56,185.573 Z M319.917,185.573 L323.7,185.573 L343.873,214.042 C345.209,216.009 347.126,219.388 347.126,219.388 C347.126,219.388 346.798,216.135 346.798,214.042 L346.798,185.569 L350.681,185.569 L350.681,225.109 L346.924,225.109 L326.756,196.664 C325.394,194.697 323.478,191.318 323.478,191.318 C323.478,191.318 323.806,194.571 323.806,196.664 L323.806,225.108 L319.923,225.108 L319.917,185.573 Z M0,237.516 L7.565,237.516 L7.565,238.777 L1.465,238.777 L1.465,244.199 L6.765,244.199 L6.765,245.46 L1.465,245.46 L1.465,251.916 L0,251.916 L0,237.516 Z M19.871,237.516 L27.991,237.516 L27.991,238.777 L21.283,238.777 L21.283,244.022 L26.755,244.022 L26.755,245.308 L21.283,245.308 L21.283,250.654 L28.369,250.654 L28.369,251.916 L19.869,251.916 L19.871,237.516 Z M40.876,237.516 L45.516,237.516 C48.1875106,237.361696 50.7248407,238.699264 52.1071405,240.990558 C53.4894403,243.281851 53.4894403,246.150149 52.1071405,248.441442 C50.7248407,250.732736 48.1875106,252.070304 45.516,251.916 L40.876,251.916 L40.876,237.516 Z M45.39,250.654 C48.520392,250.450784 50.955489,247.852481 50.955489,244.7155 C50.955489,241.578519 48.520392,238.980216 45.39,238.777 L42.29,238.777 L42.29,250.654 L45.39,250.654 Z M65.336,237.516 L73.456,237.516 L73.456,238.777 L66.748,238.777 L66.748,244.022 L72.22,244.022 L72.22,245.308 L66.748,245.308 L66.748,250.654 L73.809,250.654 L73.809,251.916 L65.336,251.916 L65.336,237.516 Z M86.316,237.516 L90.578,237.516 C91.5018494,237.457638 92.4279802,237.586201 93.301,237.894 C94.7015846,238.701045 95.5165793,240.238593 95.3983066,241.850726 C95.2800338,243.462858 94.2493711,244.865001 92.746,245.459 L93.099,246.039 L96.251,251.839 L94.613,251.839 L91.36,245.786 L87.728,245.786 L87.728,251.838 L86.316,251.838 L86.316,237.516 Z M91.158,244.602 C92.4458548,244.551288 93.5547021,243.677339 93.9049258,242.436982 C94.2551496,241.196625 93.7671444,239.871792 92.696,239.155 C92.0570264,238.862507 91.3530737,238.740874 90.653,238.802 L87.728,238.802 L87.728,244.602 L91.158,244.602 Z M115.593,247.325 L109.793,247.325 L108.154,251.914 L106.666,251.914 L111.936,237.514 L113.474,237.514 L118.744,251.914 L117.256,251.914 L115.593,247.325 Z M112.693,239.004 L112.138,240.87 L110.196,246.09 L115.239,246.09 L113.348,240.87 C113.138667,240.255333 112.953667,239.633333 112.793,239.004 L112.693,239.004 Z M130.393,237.516 L131.805,237.516 L131.805,250.654 L138.487,250.654 L138.487,251.916 L130.393,251.916 L130.393,237.516 Z M172.202,247.325 L166.427,247.325 L164.763,251.914 L163.275,251.914 L168.575,237.514 L170.088,237.514 L175.388,251.914 L174.001,251.914 L172.202,247.325 Z M169.302,239.004 C169.302,239.004 169.002,240.189 168.747,240.87 L166.831,246.09 L171.874,246.09 L170.008,240.87 C169.798667,240.255333 169.613667,239.633333 169.453,239.004 L169.302,239.004 Z M187.029,237.516 L191.291,237.516 C192.207281,237.458661 193.125693,237.587239 193.991,237.894 C195.391585,238.701045 196.206579,240.238593 196.088307,241.850726 C195.970034,243.462858 194.939371,244.865001 193.436,245.459 L193.814,246.039 L196.941,251.839 L195.327,251.839 L192.074,245.787 L188.443,245.787 L188.443,251.839 L187.031,251.839 L187.029,237.516 Z M191.845,244.602 C193.12987,244.546129 194.233939,243.67227 194.583411,242.434577 C194.932882,241.196885 194.448902,239.874629 193.383,239.155 C192.744026,238.862507 192.040074,238.740874 191.34,238.802 L188.44,238.802 L188.44,244.602 L191.845,244.602 Z M215.473,237.264 C217.300381,237.216007 219.086135,237.814092 220.516,238.953 L219.759,240.012 C218.517574,239.074179 217.002833,238.569382 215.447,238.575 C212.210839,238.785699 209.693761,241.471987 209.693761,244.715 C209.693761,247.958013 212.210839,250.644301 215.447,250.855 C217.188286,250.809156 218.832279,250.042031 219.986,248.737 L219.986,246.216 L217.464,246.216 L217.464,244.93 L221.272,244.93 L221.272,251.916 L219.961,251.916 L219.961,250.227 C218.728478,251.487661 217.033942,252.189322 215.271,252.169 C213.314742,252.151982 211.451256,251.332572 210.116381,249.902416 C208.781506,248.47226 208.092316,246.55679 208.21,244.604 C208.182894,242.662846 208.936822,240.792194 210.302394,239.41233 C211.667967,238.032466 213.530669,237.259104 215.472,237.266 L215.473,237.264 Z M234.007,237.516 L242.076,237.516 L242.076,238.777 L235.419,238.777 L235.419,244.022 L240.891,244.022 L240.891,245.308 L235.419,245.308 L235.419,250.654 L242.48,250.654 L242.48,251.916 L234.01,251.916 L234.007,237.516 Z M254.987,237.516 L256.374,237.516 L263.737,247.88 C264.216,248.611 264.922,249.822 264.922,249.822 L264.922,237.516 L266.334,237.516 L266.334,251.916 L264.771,251.916 L257.408,241.552 C256.929,240.846 256.223,239.61 256.223,239.61 L256.223,251.916 L254.786,251.916 L254.987,237.516 Z M282.952,238.777 L277.909,238.777 L277.909,237.516 L289.66,237.516 L289.66,238.777 L284.617,238.777 L284.617,251.916 L283.205,251.916 L282.952,238.777 Z M301.06,237.516 L302.6,237.516 L302.6,251.916 L301.188,251.916 L301.06,237.516 Z M315.938,237.516 L317.325,237.516 L324.688,247.88 C325.167,248.611 325.873,249.822 325.873,249.822 C325.873,249.822 325.747,248.637 325.747,247.88 L325.747,237.516 L327.184,237.516 L327.184,251.916 L325.8,251.916 L318.437,241.552 C317.958,240.846 317.252,239.61 317.252,239.61 L317.252,251.916 L315.84,251.916 L315.938,237.516 Z M347.786,247.325 L341.986,247.325 L340.423,251.914 L338.935,251.914 L344.205,237.514 L345.718,237.514 L351.018,251.914 L349.53,251.914 L347.786,247.325 Z M344.861,239.004 C344.861,239.004 344.561,240.189 344.331,240.87 L342.389,246.09 L347.432,246.09 L345.465,240.87 C345.255667,240.255333 345.070667,239.633333 344.91,239.004 L344.861,239.004 Z" id="Path_32" fill="#FFFFFF" fill-rule="nonzero"></path>
        </g>
    </g>
</svg>