<?xml version="1.0" encoding="utf-8"?>
<!-- Generator: Adobe Illustrator 25.0.0, SVG Export Plug-In . SVG Version: 6.00 Build 0)  -->
<svg version="1.1"
	 id="svg8" inkscape:version="0.92.3 (2405546, 2018-03-11)" sodipodi:docname="redlink.svg" xmlns:cc="http://creativecommons.org/ns#" xmlns:dc="http://purl.org/dc/elements/1.1/" xmlns:inkscape="http://www.inkscape.org/namespaces/inkscape" xmlns:rdf="http://www.w3.org/1999/02/22-rdf-syntax-ns#" xmlns:sodipodi="http://sodipodi.sourceforge.net/DTD/sodipodi-0.dtd" xmlns:svg="http://www.w3.org/2000/svg"
	 xmlns="http://www.w3.org/2000/svg" xmlns:xlink="http://www.w3.org/1999/xlink" x="0px" y="0px" viewBox="0 0 196.9 196.9"
	 style="enable-background:new 0 0 196.9 196.9;" xml:space="preserve">
<style type="text/css">
	.st0{fill:#FFD400;}
	.st1{fill:#007148;}
	.st2{fill:#ED1C24;}
</style>
<sodipodi:namedview  bordercolor="#666666" borderopacity="1.0" fit-margin-bottom="0" fit-margin-left="0" fit-margin-right="0" fit-margin-top="0" id="base" inkscape:current-layer="layer1" inkscape:cx="109.37665" inkscape:cy="133.14162" inkscape:document-units="mm" inkscape:pageopacity="0.0" inkscape:pageshadow="2" inkscape:window-height="663" inkscape:window-maximized="1" inkscape:window-width="1280" inkscape:window-x="0" inkscape:window-y="0" inkscape:zoom="0.67265625" pagecolor="#ffffff" showgrid="false">
	</sodipodi:namedview>
<path class="st0" d="M98,197.8c-54.6,0-98.9-44.3-98.9-98.9C-0.9,44.3,43.4,0,98,0c54.6,0,98.9,44.3,98.9,98.9
	C196.9,153.5,152.6,197.8,98,197.8"/>
<path class="st1" d="M184.9,98.9c0,48-38.9,86.9-86.9,86.9c-48,0-86.9-38.9-86.9-86.9C11.1,50.9,50,12,98,12
	C146,12,184.9,50.9,184.9,98.9"/>
<polyline class="st0" points="27.1,74.1 39.1,74.1 39.1,117.1 57.6,117.1 57.6,127.2 27.1,127.2 27.1,74.1 "/>
<path class="st0" d="M81.4,127.2l0-53.2h14l11,19.5c3.2,5.6,6.2,12.2,8.7,18.2h0.2c-0.7-7-0.9-14.2-0.9-22.3V74.1h11.1v53.2h-12.6
	l-11.4-20.5c-3.2-5.8-6.7-12.5-9.2-18.8h-0.3c0.4,7.1,0.5,14.6,0.5,23.3v16H81.4"/>
<path class="st0" d="M131.7,74.1h11.9v23.5h0.2c1.2-2.1,2.4-3.9,3.7-5.8l27.8-40.9l6.9,13.2l-25.5,32.7l18.5,30.5h-14l-13.1-23
	l-4.5,5.6v17.4h-11.9V74.1"/>
<rect x="63.2" y="74.1" class="st0" width="12.2" height="53.2"/>
<path class="st2" d="M77.2,58.4c0,4.3-3.5,7.9-7.9,7.9c-4.3,0-7.9-3.5-7.9-7.9c0-4.3,3.5-7.9,7.9-7.9C73.7,50.5,77.2,54,77.2,58.4"
	/>
</svg>
