<?xml version="1.0" encoding="UTF-8"?>
<svg width="257px" height="391px" viewBox="0 0 257 391" version="1.1" xmlns="http://www.w3.org/2000/svg" xmlns:xlink="http://www.w3.org/1999/xlink">
    <!-- Generator: Sketch 52.1 (67048) - http://www.bohemiancoding.com/sketch -->
    <title>Group_197</title>
    <desc>Created with Sketch.</desc>
    <g id="Page-1" stroke="none" stroke-width="1" fill="none" fill-rule="evenodd">
        <g id="BLOCKCHAIN_final" transform="translate(-614.000000, -10666.000000)">
            <g id="BLOCKCHAIN" transform="translate(-8572.000000, -5439.000000)">
                <g id="Group_197" transform="translate(9187.628000, 16105.328000)">
                    <g id="Group_134" transform="translate(141.195000, 0.445000)" stroke="#FFFFFF" stroke-linecap="round" stroke-linejoin="round" stroke-width="3">
                        <rect id="Rectangle_139-2" x="29.33" y="78.266" width="52.876" height="36.739"></rect>
                        <polygon id="Path_112-2" points="0 155.528 112.46 155.528 112.46 32.699 80.76 0.999 0 0.999"></polygon>
                        <polygon id="Path_113-2" points="80.766 1 80.766 32.7 112.466 32.7"></polygon>
                        <path d="M49.954,114.98 L49.954,78.264" id="Line_41-2"></path>
                        <path d="M82.205,90.037 L29.329,90.037" id="Line_42-2"></path>
                        <path d="M82.205,102.022 L29.329,102.022" id="Line_43-2"></path>
                    </g>
                    <g id="Group_136" transform="translate(0.372000, 9.733000)">
                        <g id="PDF-2" transform="translate(25.743000, 42.940000)" fill="#FFFFFF" font-family="Helvetica" font-size="40" font-weight="normal">
                            <text id="PDF">
                                <tspan x="0" y="39">PDF</tspan>
                            </text>
                        </g>
                        <polygon id="Path_174-2" stroke="#FFFFFF" stroke-width="3" stroke-linecap="round" stroke-linejoin="round" points="0.001 149.758 108.992 149.758 108.992 30.719 78.273 0 0.001 0"></polygon>
                        <polygon id="Path_175-2" stroke="#FFFFFF" stroke-width="3" stroke-linecap="round" stroke-linejoin="round" points="78.272 0 78.272 30.719 108.991 30.719"></polygon>
                        <path d="M0,128.674 L108.992,128.674" id="Line_101-2" stroke="#FFFFFF" stroke-width="3" stroke-linecap="round" stroke-linejoin="round"></path>
                    </g>
                    <g id="Group_173" transform="translate(83.538000, 241.216000)">
                        <g id="Group_132-2" stroke="#FFFFFF" stroke-linecap="round" stroke-width="3">
                            <path d="M31.506,10.834 L56.224,10.834" id="Line_28-2"></path>
                            <path d="M41.076,137.374 L46.545,137.374" id="Line_29-2"></path>
                            <rect id="Rectangle_129-2" x="0" y="0" width="87.938" height="147.683" rx="3.004"></rect>
                            <path d="M0,21.459 L87.938,21.459" id="Line_30-2"></path>
                            <path d="M0,126.646 L87.938,126.646" id="Line_31-2"></path>
                        </g>
                        <path d="M56.639,71.454 C56.639,69.414 56.612,67.563 56.647,65.715 C56.662,65.09 56.531,64.809 55.837,64.874 C55.1712752,64.924117 54.5027248,64.924117 53.837,64.874 C53.386,64.851 53.27,65.036 53.27,65.453 C53.2813333,70.0696667 53.2813333,74.6876667 53.27,79.307 C53.27,79.731 53.397,79.907 53.841,79.889 C54.589,79.858 55.341,79.854 56.093,79.889 C56.56,79.908 56.652,79.712 56.641,79.299 C56.626,78.35 56.726,77.399 56.618,76.464 C56.4749379,75.3095363 56.973468,74.1690527 57.918,73.49 C58.7965746,74.8563778 59.592339,76.2742609 60.301,77.736 C61.041,79.495 62.148,80.254 64.038,79.892 C64.5225489,79.843743 65.0103581,79.8373861 65.496,79.873 C64.513,78.245 63.602,76.737 62.696,75.226 C61.99,74.065 61.296,72.896 60.571,71.739 C60.3564443,71.4820174 60.3733599,71.103803 60.61,70.867 C62.6,68.341 64.579,65.795 66.61,63.196 C67.5047229,65.3946409 68.0298025,67.7260756 68.164,70.096 C68.6759224,76.4627165 66.6268063,82.7705962 62.471,87.621 C58.8125247,92.1015088 53.6192505,95.0622204 47.9,95.928 C39.5960739,97.4657451 31.0989156,94.4897801 25.569,88.107 C22.1877041,84.4453487 20.0848802,79.786013 19.576,74.828 C18.6833654,68.0926764 20.7096314,61.2967355 25.145,56.15 C28.7896629,51.6932015 33.9505548,48.7378129 39.639,47.85 C46.7500517,46.5457749 54.0696643,48.5245254 59.555,53.234 C61.5072785,54.8505151 63.1814618,56.7760286 64.511,58.934 C64.673,59.196 64.827,59.408 64.596,59.752 C61.97,63.589 59.366,67.438 56.643,71.457 M48.416,74.635 C47.278,72.205 45.955,69.935 44.644,67.647 C44.119,66.737 43.784,65.499 42.986,65.021 C42.226,64.57 40.986,64.955 39.962,64.878 C39.233,64.828 39.117,65.102 39.121,65.765 C39.152,69.772 39.133,73.772 39.136,77.779 C39.136,78.439 38.92,79.314 39.256,79.715 C39.649,80.197 40.556,79.796 41.235,79.889 C42.041,80.001 42.323,79.766 42.303,78.879 C42.237,75.609 42.326,72.334 42.087,68.894 C42.1761893,68.9941926 42.2574352,69.1011832 42.33,69.214 C43.572,72.095 45.311,74.733 46.63,77.568 C47.502,79.446 48.62,80.248 50.683,79.924 C51.366,79.824 51.528,79.681 51.524,79.014 C51.493,75.088 51.516,71.169 51.501,67.247 C51.501,66.483 51.86,65.438 51.335,65.029 C50.841,64.647 49.842,64.944 49.075,64.879 C48.485,64.837 48.369,65.079 48.381,65.6 C48.416,66.873 48.412,68.153 48.416,69.434 C48.416,71.166 48.416,72.905 48.416,74.634 M23.891,72.343 C23.891,74.595 23.91,76.843 23.879,79.096 C23.867,79.696 23.999,79.917 24.654,79.896 C26.513,79.854 28.376,79.877 30.242,79.877 C32.525,79.877 32.51,79.877 32.456,77.629 C32.448,77.143 32.298,77.023 31.839,77.029 C30.562,77.056 29.282,77.006 28.005,77.048 C27.423,77.067 27.249,76.901 27.257,76.315 C27.288,73.365 27.276,70.415 27.269,67.479 C27.269,66.65 27.554,65.508 27.13,65.069 C26.594,64.521 25.452,64.969 24.577,64.884 C24.014,64.826 23.877,65.05 23.883,65.584 C23.906,67.829 23.891,70.084 23.891,72.337 M37.459,72.387 C37.459,70.108 37.444,67.824 37.471,65.549 C37.471,65.049 37.355,64.849 36.823,64.886 C36.075,64.928 35.323,64.909 34.571,64.886 C34.139,64.871 33.992,65.025 33.992,65.465 C34.0073333,70.0736667 34.0073333,74.689 33.992,79.311 C33.992,79.739 34.123,79.901 34.567,79.882 C35.315,79.855 36.067,79.847 36.819,79.89 C37.347,79.921 37.471,79.732 37.467,79.23 C37.44,76.947 37.455,74.671 37.455,72.388 M37.918,60.498 C37.9097829,59.7173747 37.4857314,59.0004308 36.8055815,58.6172344 C36.1254315,58.2340379 35.2925142,58.2428055 34.6205814,58.6402344 C33.9486486,59.0376633 33.5397828,59.7633747 33.548,60.544 C33.5907518,61.7350819 34.5741975,62.6755185 35.766,62.665 C36.339437,62.6652825 36.8892489,62.4365824 37.2933194,62.0296954 C37.69739,61.6228083 37.9222655,61.0714212 37.918,60.498" id="Path_77-2" fill="#FFFFFF" fill-rule="nonzero"></path>
                    </g>
                    <g id="Group_196" transform="translate(59.462000, 174.872000)" stroke="#FFFFFF" stroke-width="3">
                        <polyline id="Path_223" points="0 0 0 15.393 135.4 15.393 135.4 0"></polyline>
                        <path d="M67.593,15.215 L67.593,42.501" id="Line_115"></path>
                    </g>
                </g>
            </g>
        </g>
    </g>
</svg>