<?xml version="1.0" encoding="UTF-8"?>
<svg width="193px" height="148px" viewBox="0 0 193 148" version="1.1" xmlns="http://www.w3.org/2000/svg" xmlns:xlink="http://www.w3.org/1999/xlink">
    <!-- Generator: Sketch 52.1 (67048) - http://www.bohemiancoding.com/sketch -->
    <title>Path_173</title>
    <desc>Created with Sketch.</desc>
    <g id="Page-1" stroke="none" stroke-width="1" fill="none" fill-rule="evenodd">
        <g id="BLOCKCHAIN_final" transform="translate(-647.000000, -10145.000000)" stroke="#FFFFFF" stroke-width="3">
            <g id="BLOCKCHAIN" transform="translate(-8572.000000, -5439.000000)">
                <path d="M9277.072,15672.497 L9277.072,15675.749 C9289.302,15682.732 9295.555,15679.199 9295.555,15695.092 L9245.379,15695.092 C9245.379,15678.613 9251.636,15682.732 9263.89,15675.749 L9263.89,15672.885 C9261.665,15671.333 9261.204,15668.666 9260.497,15665.691 L9260.42,15665.691 C9260.112,15665.691 9259.757,15665.215 9259.757,15664.662 C9259.74674,15664.553 9259.77199,15664.4435 9259.829,15664.35 C9259.58455,15663.8925 9259.40195,15663.4046 9259.286,15662.899 C9258.998,15662.039 9258.229,15660.237 9258.886,15659.574 C9259.544,15658.983 9259.948,15659.574 9259.948,15659.574 C9259.093,15654.898 9257.829,15648.757 9264.34,15646.921 C9264.34,15642.913 9279.463,15644.721 9281.41,15651.145 C9282.16,15653.645 9281.093,15659.464 9281.093,15659.464 C9281.15169,15659.2966 9281.28562,15659.1664 9281.45468,15659.1126 C9281.62373,15659.0587 9281.80827,15659.0874 9281.953,15659.19 C9282.708,15659.796 9281.876,15662.155 9281.569,15662.9 C9281.48578,15663.4577 9281.28612,15663.9916 9280.983,15664.467 L9280.983,15664.667 C9280.983,15665.22 9280.709,15665.696 9280.435,15665.696 C9279.767,15668.286 9279.104,15671.165 9277.071,15672.506 M9365.519,15682.17 L9319.492,15682.17 C9317.651,15682.17 9316.239,15683.314 9316.239,15684.741 C9316.239,15686.226 9317.652,15687.341 9319.492,15687.341 L9365.521,15687.341 C9367.357,15687.341 9368.813,15686.226 9368.813,15684.741 C9368.813,15683.314 9367.357,15682.17 9365.521,15682.17 M9365.521,15669.046 L9319.492,15669.046 C9317.86064,15668.9127 9316.41916,15670.1011 9316.239,15671.728 C9316.239,15673.175 9317.652,15674.314 9319.492,15674.314 L9365.521,15674.314 C9367.357,15674.314 9368.813,15673.175 9368.813,15671.728 C9368.813,15670.31 9367.357,15669.046 9365.521,15669.046 M9365.521,15656.037 L9319.492,15656.037 C9317.651,15656.037 9316.239,15657.152 9316.239,15658.608 C9316.239,15660.064 9317.652,15661.208 9319.492,15661.208 L9365.521,15661.208 C9367.357,15661.208 9368.813,15660.069 9368.813,15658.608 C9368.813,15657.147 9367.357,15656.037 9365.521,15656.037 M9392.053,15608.177 L9358.235,15608.177 L9358.235,15621.577 L9392.052,15621.577 C9394.53416,15621.5858 9396.54043,15623.6028 9396.536,15626.085 L9396.536,15712.222 C9396.53972,15713.4146 9396.06926,15714.5597 9395.22823,15715.4053 C9394.3872,15716.2508 9393.24458,15716.7274 9392.052,15716.73 L9238.401,15716.73 C9235.91472,15716.7218 9233.90123,15714.7083 9233.893,15712.222 L9233.893,15626.074 C9233.90341,15623.5886 9235.91562,15621.5764 9238.401,15621.566 L9272.001,15621.566 L9272.001,15608.166 L9238.401,15608.166 C9228.51939,15608.182 9220.51366,15616.1904 9220.501,15626.072 L9220.501,15712.209 C9220.51799,15722.0935 9228.51652,15730.1077 9238.401,15730.144 L9392.053,15730.144 C9401.9324,15730.1006 9409.92305,15722.0885 9409.94,15712.209 L9409.94,15626.074 C9409.92736,15616.1974 9401.92954,15608.1911 9392.053,15608.168 M9338.225,15596.549 L9330.3,15596.549 C9330.07615,15590.5265 9325.12671,15585.7608 9319.1,15585.765 L9311.26,15585.765 C9305.2441,15585.7876 9300.31018,15590.5383 9300.06,15596.549 L9292.09,15596.549 C9275.847,15596.549 9276.404,15632.749 9292.383,15632.749 L9338.051,15632.749 C9353.684,15632.749 9355.097,15596.549 9338.224,15596.549" id="Path_173"></path>
            </g>
        </g>
    </g>
</svg>