<?xml version="1.0" encoding="UTF-8"?>
<svg width="354px" height="134px" viewBox="0 0 354 134" version="1.1" xmlns="http://www.w3.org/2000/svg" xmlns:xlink="http://www.w3.org/1999/xlink">
    <!-- Generator: Sketch 52.1 (67048) - http://www.bohemiancoding.com/sketch -->
    <title>Group 14</title>
    <desc>Created with Sketch.</desc>
    <g id="Page-1" stroke="none" stroke-width="1" fill="none" fill-rule="evenodd">
        <g id="BLOCKCHAIN_final" transform="translate(-1023.000000, -12305.000000)">
            <g id="BLOCKCHAIN" transform="translate(-8572.000000, -5439.000000)">
                <g id="Group-14" transform="translate(9595.000000, 17745.000000)">
                    <g id="Recibe_autorización_de_acceso" transform="translate(175.000000, 9.098000)" fill="#FFFFFF" font-family="Poppins-ExtraLight, Poppins ExtraLight" font-size="30" font-weight="normal">
                        <text id="Recibe">
                            <tspan x="0" y="32">Recibe</tspan>
                        </text>
                        <text id="autorización">
                            <tspan x="0" y="68">autorización</tspan>
                        </text>
                        <text id="de-acceso">
                            <tspan x="0" y="104">de acceso</tspan>
                        </text>
                    </g>
                    <g id="Group_202">
                        <g id="_6" transform="translate(47.986000, 26.719000)" fill="#FFFFFF" font-family="Poppins-ExtraLight, Poppins ExtraLight" font-size="56" font-weight="normal">
                            <text id="6">
                                <tspan x="0" y="59">6</tspan>
                            </text>
                        </g>
                        <path d="M120.909,66.191 C120.910618,88.1030656 107.712139,107.858352 87.4683401,116.244484 C67.2245407,124.630616 43.9223676,119.995973 28.4281974,104.501803 C12.9340272,89.0076324 8.2993839,65.7054593 16.6855157,45.4616599 C25.0716476,25.2178605 44.8269344,12.0193822 66.739,12.021 C96.6562649,12.021 120.909,36.2737351 120.909,66.191 Z" id="Path_166-3" stroke="#FFFFFF" stroke-width="2"></path>
                        <path d="M132.783,66.192 C132.782596,92.9056999 116.69018,116.988716 92.0097068,127.211045 C67.3292341,137.433375 38.9211705,131.781878 20.0323042,112.891867 C1.1434379,94.0018569 -4.50633927,65.5934512 5.71748528,40.9135976 C15.9413098,16.233744 40.0253001,0.142786608 66.739,0.144 C84.2554883,0.144530425 101.054336,7.10343701 113.439989,19.4898397 C125.825641,31.8762425 132.78353,48.6755117 132.783,66.192 Z" id="Path_167-3" stroke="#FFFFFF"></path>
                    </g>
                </g>
            </g>
        </g>
    </g>
</svg>