<?xml version="1.0" encoding="UTF-8"?>
<svg width="266px" height="311px" viewBox="0 0 266 311" version="1.1" xmlns="http://www.w3.org/2000/svg" xmlns:xlink="http://www.w3.org/1999/xlink">
    <!-- Generator: Sketch 52.1 (67048) - http://www.bohemiancoding.com/sketch -->
    <title>Group_142</title>
    <desc>Created with Sketch.</desc>
    <g id="Page-1" stroke="none" stroke-width="1" fill="none" fill-rule="evenodd" stroke-linecap="round">
        <g id="BLOCKCHAIN_final" transform="translate(-1526.000000, -10700.000000)" stroke="#FFFFFF" stroke-width="3">
            <g id="BLOCKCHAIN" transform="translate(-8572.000000, -5439.000000)">
                <g id="Group_142" transform="translate(10099.185000, 16140.604000)">
                    <rect id="Rectangle_160" stroke-linejoin="round" x="173.688" y="0.218" width="50.522" height="26.181"></rect>
                    <path d="M187.703,13.31 L210.196,13.31" id="Line_59" stroke-linejoin="round"></path>
                    <path d="M183.646,26.398 L183.646,35.617" id="Line_60" stroke-linejoin="round"></path>
                    <path d="M214.805,26.398 L214.805,35.617" id="Line_61" stroke-linejoin="round"></path>
                    <path d="M150.177,35.616 L249.384,35.616 C250.145048,35.616 250.762,36.2329516 250.762,36.994 L250.762,45.3 C250.762,46.0616007 250.144601,46.679 249.383,46.679 L150.178,46.679 C149.416399,46.679 148.799,46.0616007 148.799,45.3 L148.799,36.994 C148.799,36.2329516 149.415952,35.616 150.177,35.616 Z" id="Rectangle_161" stroke-linejoin="round"></path>
                    <rect id="Rectangle_162" stroke-linejoin="round" x="153.48" y="46.682" width="91.379" height="80.75"></rect>
                    <path d="M145.664,127.432 L250.761,127.432" id="Line_62" stroke-linejoin="round"></path>
                    <path d="M187.889,118.776 L154.709,118.776" id="Line_63" stroke-linejoin="round"></path>
                    <path d="M243.198,118.776 L210.018,118.776" id="Line_64" stroke-linejoin="round"></path>
                    <rect id="Rectangle_163" x="164.928" y="63.369" width="12.727" height="12.727"></rect>
                    <rect id="Rectangle_164" x="192.585" y="63.369" width="12.727" height="12.727"></rect>
                    <rect id="Rectangle_165" x="220.244" y="63.369" width="12.727" height="12.727"></rect>
                    <rect id="Rectangle_166" x="164.928" y="93.604" width="12.727" height="12.727"></rect>
                    <rect id="Rectangle_167" x="220.244" y="93.604" width="12.727" height="12.727"></rect>
                    <rect id="Rectangle_168" stroke-linejoin="round" x="187.886" y="91.855" width="21.386" height="35.577"></rect>
                    <path d="M201.531,106.331 L201.531,112.875" id="Line_65" stroke-linejoin="round"></path>
                    <path d="M258.652,212.559 L144.403,212.559 C142.159067,212.559 140.34,210.739933 140.34,208.496 C140.34,206.252067 142.159067,204.433 144.403,204.433 L258.652,204.433 C260.895933,204.433 262.715,206.252067 262.715,208.496 C262.715,210.739933 260.895933,212.559 258.652,212.559 Z" id="Path_160" stroke-linejoin="round"></path>
                    <rect id="Rectangle_169" stroke-linejoin="round" x="149.328" y="212.56" width="103.186" height="94.751"></rect>
                    <path d="M260.482,307.537 L140.633,307.537" id="Line_66" stroke-linejoin="round"></path>
                    <path d="M189.639,298.653 L149.328,298.653" id="Line_67" stroke-linejoin="round"></path>
                    <path d="M163.364,204.434 L163.364,181.73" id="Line_68" stroke-linejoin="round"></path>
                    <path d="M178.354,204.434 L178.354,181.73" id="Line_69" stroke-linejoin="round"></path>
                    <path d="M167.371,238.707 L186.363,238.707" id="Line_70" stroke-linejoin="round"></path>
                    <path d="M213.83,238.707 L232.822,238.707" id="Line_71" stroke-linejoin="round"></path>
                    <path d="M234.997,289.484 L251.13,289.484" id="Line_72" stroke-linejoin="round"></path>
                    <path d="M149.328,289.484 L165.464,289.484" id="Line_73" stroke-linejoin="round"></path>
                    <path d="M193.343,204.434 L193.343,181.73" id="Line_74" stroke-linejoin="round"></path>
                    <path d="M208.335,204.434 L208.335,181.73" id="Line_75" stroke-linejoin="round"></path>
                    <path d="M223.324,204.434 L223.324,181.73" id="Line_76" stroke-linejoin="round"></path>
                    <path d="M238.316,204.434 L238.316,181.73" id="Line_77" stroke-linejoin="round"></path>
                    <path d="M252.513,298.653 L211.768,298.653" id="Line_78" stroke-linejoin="round"></path>
                    <rect id="Rectangle_170" stroke-linejoin="round" x="167.371" y="229.72" width="18.992" height="18.989" rx="0.76"></rect>
                    <rect id="Rectangle_171" stroke-linejoin="round" x="213.654" y="229.72" width="18.992" height="18.989" rx="0.76"></rect>
                    <rect id="Rectangle_172" stroke-linejoin="round" x="189.639" y="274.663" width="21.39" height="32.646"></rect>
                    <path d="M203.281,286.211 L203.281,292.755" id="Line_79" stroke-linejoin="round"></path>
                    <polygon id="Path_161" stroke-linejoin="round" points="252.513 204.435 149.327 204.435 152.727 181.735 249.121 181.735"></polygon>
                    <path d="M218.271,274.662 L218.271,270.346 C218.271,267.142748 215.674252,264.546 212.471,264.546 L188.199,264.546 C184.995748,264.546 182.399,267.142748 182.399,270.346 L182.399,274.662 L218.271,274.662 Z" id="Path_162" stroke-linejoin="round"></path>
                    <rect id="Rectangle_173" stroke-linejoin="round" x="33.785" y="180.319" width="50.522" height="26.184"></rect>
                    <path d="M47.798,193.412 L70.291,193.412" id="Line_80" stroke-linejoin="round"></path>
                    <path d="M43.739,206.504 L43.739,215.723" id="Line_81" stroke-linejoin="round"></path>
                    <path d="M74.9,206.504 L74.9,215.723" id="Line_82" stroke-linejoin="round"></path>
                    <path d="M10.274,215.723 L109.474,215.723 C110.234496,215.723 110.851,216.339504 110.851,217.1 L110.851,225.408 C110.851,226.169048 110.234048,226.786 109.473,226.786 L10.273,226.786 C9.51195161,226.786 8.895,226.169048 8.895,225.408 L8.895,217.102 C8.895,216.340399 9.51239933,215.723 10.274,215.723 Z" id="Rectangle_174" stroke-linejoin="round"></path>
                    <rect id="Rectangle_175" stroke-linejoin="round" x="13.573" y="226.787" width="91.382" height="80.75"></rect>
                    <path d="M5.76,307.537 L110.854,307.537" id="Line_83" stroke-linejoin="round"></path>
                    <path d="M47.981,298.879 L14.801,298.879" id="Line_84" stroke-linejoin="round"></path>
                    <path d="M103.294,298.879 L70.114,298.879" id="Line_85" stroke-linejoin="round"></path>
                    <rect id="Rectangle_176" x="25.024" y="243.471" width="12.727" height="12.727"></rect>
                    <rect id="Rectangle_177" x="52.679" y="243.471" width="12.727" height="12.727"></rect>
                    <rect id="Rectangle_178" x="80.34" y="243.471" width="12.727" height="12.727"></rect>
                    <rect id="Rectangle_179" x="25.024" y="273.709" width="12.727" height="12.727"></rect>
                    <rect id="Rectangle_180" x="80.34" y="273.709" width="12.727" height="12.727"></rect>
                    <rect id="Rectangle_181" stroke-linejoin="round" x="47.979" y="271.957" width="21.39" height="35.58"></rect>
                    <path d="M61.626,286.436 L61.626,292.98" id="Line_86" stroke-linejoin="round"></path>
                    <path d="M119.133,32.457 L4.873,32.457 C2.62906706,32.457 0.81,30.6379329 0.81,28.394 C0.81,26.1500671 2.62906706,24.331 4.873,24.331 L119.133,24.331 C121.376933,24.331 123.196,26.1500671 123.196,28.394 C123.196,30.6379329 121.376933,32.457 119.133,32.457 Z" id="Path_163" stroke-linejoin="round"></path>
                    <rect id="Rectangle_182" stroke-linejoin="round" x="9.805" y="32.457" width="103.186" height="94.751"></rect>
                    <path d="M120.956,127.432 L1.107,127.432" id="Line_87" stroke-linejoin="round"></path>
                    <path d="M50.113,118.551 L9.806,118.551" id="Line_88" stroke-linejoin="round"></path>
                    <path d="M23.839,24.333 L23.839,1.629" id="Line_89" stroke-linejoin="round"></path>
                    <path d="M38.831,24.333 L38.831,1.629" id="Line_90" stroke-linejoin="round"></path>
                    <path d="M27.848,58.604 L46.84,58.604" id="Line_91" stroke-linejoin="round"></path>
                    <path d="M74.304,58.604 L93.296,58.604" id="Line_92" stroke-linejoin="round"></path>
                    <path d="M95.471,109.378 L111.607,109.378" id="Line_93" stroke-linejoin="round"></path>
                    <path d="M9.805,109.378 L25.941,109.378" id="Line_94" stroke-linejoin="round"></path>
                    <path d="M53.82,24.333 L53.82,1.629" id="Line_95" stroke-linejoin="round"></path>
                    <path d="M68.81,24.333 L68.81,1.629" id="Line_96" stroke-linejoin="round"></path>
                    <path d="M83.801,24.333 L83.801,1.629" id="Line_97" stroke-linejoin="round"></path>
                    <path d="M98.79,24.333 L98.79,1.629" id="Line_98" stroke-linejoin="round"></path>
                    <path d="M112.99,118.551 L72.245,118.551" id="Line_99" stroke-linejoin="round"></path>
                    <rect id="Rectangle_183" stroke-linejoin="round" x="27.848" y="49.614" width="18.992" height="18.992" rx="0.76"></rect>
                    <rect id="Rectangle_184" stroke-linejoin="round" x="74.132" y="49.614" width="18.989" height="18.992" rx="0.76"></rect>
                    <rect id="Rectangle_185" stroke-linejoin="round" x="50.111" y="94.558" width="21.39" height="32.65"></rect>
                    <path d="M63.759,106.108 L63.759,112.652" id="Line_100" stroke-linejoin="round"></path>
                    <polygon id="Path_164" stroke-linejoin="round" points="112.99 24.333 9.804 24.333 13.204 1.633 109.594 1.633"></polygon>
                    <path d="M78.744,94.558 L78.744,90.243 C78.744,87.0397485 76.1472515,84.443 72.944,84.443 L48.675,84.443 C45.4717485,84.443 42.875,87.0397485 42.875,90.243 L42.875,94.559 L78.744,94.558 Z" id="Path_165" stroke-linejoin="round"></path>
                </g>
            </g>
        </g>
    </g>
</svg>