<?xml version="1.0" encoding="UTF-8"?>
<svg width="153px" height="184px" viewBox="0 0 153 184" version="1.1" xmlns="http://www.w3.org/2000/svg" xmlns:xlink="http://www.w3.org/1999/xlink">
    <!-- Generator: Sketch 52.1 (67048) - http://www.bohemiancoding.com/sketch -->
    <title>Group_135</title>
    <desc>Created with Sketch.</desc>
    <g id="Page-1" stroke="none" stroke-width="1" fill="none" fill-rule="evenodd" stroke-linecap="round">
        <g id="BLOCKCHAIN_final" transform="translate(-1582.000000, -9408.000000)" stroke="#FFFFFF" stroke-width="3">
            <g id="BLOCKCHAIN" transform="translate(-8572.000000, -5439.000000)">
                <g id="Group_135" transform="translate(10155.228000, 14848.000000)">
                    <rect id="Rectangle_151" stroke-linejoin="round" x="40.435" y="0.716" width="71.499" height="37.052"></rect>
                    <path d="M60.271,19.246 L92.104,19.246" id="Line_52" stroke-linejoin="round"></path>
                    <path d="M54.526,37.77 L54.526,50.817" id="Line_53" stroke-linejoin="round"></path>
                    <path d="M98.627,37.77 L98.627,50.817" id="Line_54" stroke-linejoin="round"></path>
                    <path d="M6.592,50.815 L148.132,50.815 C148.892496,50.815 149.509,51.4315039 149.509,52.192 L149.509,65.098 C149.509,65.8596007 148.891601,66.477 148.13,66.477 L6.593,66.477 C5.83139933,66.477 5.214,65.8596007 5.214,65.098 L5.214,52.193 C5.214,51.4319516 5.83095161,50.815 6.592,50.815 Z" id="Rectangle_152" stroke-linejoin="round"></path>
                    <rect id="Rectangle_153" stroke-linejoin="round" x="11.837" y="66.477" width="129.325" height="114.274"></rect>
                    <path d="M0.772,180.752 L149.507,180.752" id="Line_55" stroke-linejoin="round"></path>
                    <path d="M60.529,168.503 L13.573,168.503" id="Line_56" stroke-linejoin="round"></path>
                    <path d="M138.804,168.503 L91.848,168.503" id="Line_57" stroke-linejoin="round"></path>
                    <rect id="Rectangle_154" x="28.042" y="90.087" width="18.012" height="18.012"></rect>
                    <rect id="Rectangle_155" x="67.179" y="90.087" width="18.012" height="18.012"></rect>
                    <rect id="Rectangle_156" x="106.326" y="90.087" width="18.007" height="18.012"></rect>
                    <rect id="Rectangle_157" x="28.042" y="132.881" width="18.012" height="18.007"></rect>
                    <rect id="Rectangle_158" x="106.326" y="132.881" width="18.007" height="18.007"></rect>
                    <rect id="Rectangle_159" stroke-linejoin="round" x="60.528" y="130.402" width="30.271" height="50.349"></rect>
                    <path d="M79.841,150.89 L79.841,160.155" id="Line_58" stroke-linejoin="round"></path>
                </g>
            </g>
        </g>
    </g>
</svg>