<?xml version="1.0" encoding="UTF-8"?>
<svg width="73px" height="191px" viewBox="0 0 73 191" version="1.1" xmlns="http://www.w3.org/2000/svg" xmlns:xlink="http://www.w3.org/1999/xlink">
    <!-- Generator: Sketch 52.1 (67048) - http://www.bohemiancoding.com/sketch -->
    <title>Group_131</title>
    <desc>Created with Sketch.</desc>
    <g id="Page-1" stroke="none" stroke-width="1" fill="none" fill-rule="evenodd">
        <g id="BLOCKCHAIN_final" transform="translate(-706.000000, -9404.000000)" stroke="#FFFFFF" stroke-width="3">
            <g id="BLOCKCHAIN" transform="translate(-8572.000000, -5439.000000)">
                <g id="Group_131" transform="translate(9279.220000, 14844.313000)">
                    <path d="M52.441,18.67 C52.4382387,28.4504733 44.5081411,36.3772881 34.7276674,36.3759996 C24.9471938,36.3747111 17.019185,28.4458072 17.0190007,18.6653335 C17.0188164,8.88485977 24.9465264,0.955657068 34.727,0.954 C39.4255541,0.95346933 43.9317908,2.81986455 47.2539827,6.14243159 C50.5761747,9.46499862 52.4420611,13.971446 52.441,18.67 Z" id="Path_168-2"></path>
                    <polyline id="Path_169-2" points="56.943 76.302 56.943 112.121 13.303 112.121 13.303 76.302"></polyline>
                    <path d="M34.733,131.098 L34.733,177.141 C34.733,183.058179 29.9361788,187.855 24.019,187.855 C18.1018212,187.855 13.305,183.058179 13.305,177.141 L13.305,113.677" id="Path_170-2"></path>
                    <path d="M35.515,131.098 L35.515,177.141 C35.515,183.058179 40.3118212,187.855 46.229,187.855 C52.1461788,187.855 56.943,183.058179 56.943,177.141 L56.943,113.677" id="Path_171-2"></path>
                    <path d="M58.184,48.902 L12.847,48.902 C6.18027616,48.9058649 0.778342413,54.3122752 0.78,60.979 L0.78,114.529 C0.780551235,121.194001 6.18199995,126.597688 12.847,126.601 L13.304,126.601 L13.304,112.123 L56.944,112.123 L56.944,126.602 L58.184,126.602 C61.3862239,126.602 64.457293,125.329922 66.7216073,123.065607 C68.9859215,120.801293 70.258,117.730224 70.258,114.528 L70.258,60.978 C70.2582652,57.7755109 68.9863357,54.704082 66.7220215,52.4393927 C64.4577073,50.1747034 61.3864891,48.9022652 58.184,48.902 Z" id="Path_172-2"></path>
                </g>
            </g>
        </g>
    </g>
</svg>