<?xml version="1.0" encoding="UTF-8"?>
<svg width="114px" height="188px" viewBox="0 0 114 188" version="1.1" xmlns="http://www.w3.org/2000/svg" xmlns:xlink="http://www.w3.org/1999/xlink">
    <!-- Generator: Sketch 52.1 (67048) - http://www.bohemiancoding.com/sketch -->
    <title>Group_133</title>
    <desc>Created with Sketch.</desc>
    <g id="Page-1" stroke="none" stroke-width="1" fill="none" fill-rule="evenodd">
        <g id="BLOCKCHAIN_final" transform="translate(-686.000000, -9676.000000)">
            <g id="BLOCKCHAIN" transform="translate(-8572.000000, -5439.000000)">
                <g id="Group_133" transform="translate(9259.613000, 15117.000000)">
                    <g id="Group_132" stroke="#FFFFFF" stroke-linecap="round" stroke-width="3">
                        <path d="M39.645,13.708 L70.445,13.708" id="Line_28"></path>
                        <path d="M51.57,171.383 L58.384,171.383" id="Line_29"></path>
                        <rect id="Rectangle_129" x="0.387" y="0.209" width="109.574" height="184.019" rx="3.004"></rect>
                        <path d="M0.388,26.948 L109.962,26.948" id="Line_30"></path>
                        <path d="M0.388,158.015 L109.962,158.015" id="Line_31"></path>
                    </g>
                    <path d="M70.962,89.244 C70.962,86.702 70.928,84.395 70.972,82.093 C70.991,81.314 70.828,80.964 69.963,81.045 C69.1328428,81.1075385 68.2991572,81.1075385 67.469,81.045 C66.907,81.016 66.763,81.245 66.763,81.766 C66.7776667,87.5186667 66.7776667,93.2726667 66.763,99.028 C66.763,99.557 66.922,99.778 67.474,99.754 C68.406,99.715 69.348,99.711 70.28,99.754 C70.861,99.778 70.98,99.533 70.962,99.019 C70.943,97.837 71.068,96.655 70.933,95.487 C70.7560085,94.0479358 71.378818,92.6270557 72.557,91.782 C73.6519943,93.4846401 74.6437786,95.2514853 75.527,97.073 C76.45,99.264 77.827,100.211 80.184,99.759 C80.7878486,99.6987471 81.3957706,99.6907173 82.001,99.735 C80.776,97.707 79.641,95.828 78.507,93.944 C77.628,92.497 76.758,91.044 75.859,89.6 C75.5917416,89.2800599 75.6125569,88.8091135 75.907,88.514 C78.387,85.366 80.852,82.195 83.38,78.956 C84.495329,81.6962889 85.1498249,84.602156 85.317,87.556 C85.9551424,95.4891395 83.4021133,103.349071 78.224,109.393 C73.6654244,114.975931 67.1944159,118.665147 60.068,119.744 C49.097,121.444 39.75,118.168 32.243,109.998 C28.0296264,105.435545 25.4092536,99.6298826 24.775,93.452 C23.6625272,85.0593908 26.1872742,76.591173 31.714,70.178 C36.2545202,64.6228096 42.6852794,60.938476 49.774,59.831 C58.6346606,58.2060219 67.7551346,60.67174 74.59,66.54 C77.0222942,68.553527 79.108257,70.951962 80.765,73.64 C80.965,73.967 81.159,74.231 80.871,74.659 C77.598,79.441 74.355,84.237 70.962,89.244 M60.711,93.204 C59.293,90.177 57.645,87.346 56.011,84.496 C55.357,83.362 54.939,81.819 53.945,81.223 C52.998,80.661 51.456,81.141 50.177,81.045 C49.269,80.983 49.125,81.324 49.129,82.15 C49.167,87.143 49.143,92.126 49.148,97.12 C49.148,97.942 48.879,99.033 49.297,99.532 C49.787,100.132 50.921,99.632 51.762,99.748 C52.762,99.887 53.117,99.594 53.093,98.489 C53.011,94.414 53.122,90.334 52.824,86.047 C52.9342259,86.1723484 53.0345287,86.3060856 53.124,86.447 C54.671,90.037 56.839,93.324 58.482,96.856 C59.568,99.196 60.962,100.196 63.533,99.792 C64.384,99.662 64.585,99.492 64.581,98.658 C64.543,93.766 64.571,88.883 64.552,83.996 C64.552,83.044 64.999,81.742 64.345,81.233 C63.73,80.757 62.485,81.127 61.529,81.046 C60.794,80.993 60.65,81.296 60.664,81.946 C60.707,83.532 60.703,85.127 60.707,86.723 C60.707,88.881 60.707,91.048 60.707,93.206 M30.148,90.351 C30.148,93.158 30.172,95.959 30.134,98.766 C30.12,99.516 30.283,99.79 31.1,99.766 C33.416,99.713 35.737,99.742 38.063,99.742 C40.908,99.742 40.889,99.742 40.821,96.942 C40.811,96.336 40.621,96.188 40.052,96.197 C38.461,96.231 36.866,96.168 35.275,96.221 C34.549,96.245 34.333,96.038 34.343,95.308 C34.381,91.632 34.367,87.96 34.357,84.298 C34.357,83.265 34.713,81.842 34.184,81.298 C33.516,80.616 32.094,81.173 31.003,81.067 C30.303,80.995 30.128,81.274 30.138,81.942 C30.167,84.742 30.148,87.55 30.148,90.357 M47.054,90.42 C47.054,87.58 47.035,84.735 47.068,81.9 C47.068,81.275 46.924,81.025 46.261,81.073 C45.329,81.126 44.387,81.102 43.454,81.073 C42.916,81.054 42.733,81.246 42.733,81.794 C42.7523333,87.5366667 42.7523333,93.2873333 42.733,99.046 C42.733,99.579 42.896,99.781 43.449,99.757 C44.381,99.723 45.323,99.714 46.256,99.767 C46.914,99.805 47.068,99.567 47.063,98.945 C47.029,96.1 47.049,93.265 47.049,90.42 M47.626,75.604 C47.6311909,74.6208398 47.1059903,73.7112301 46.2519232,73.2241979 C45.3978561,72.7371656 44.3475703,72.7483532 43.5040716,73.2534679 C42.6605728,73.7585826 42.1548675,74.6791734 42.181,75.662 C42.2371385,77.144587 43.4603823,78.314704 44.944,78.305 C45.6583496,78.3050179 46.3431678,78.0199496 46.8465025,77.5130477 C47.3498373,77.0061458 47.6300625,76.3193317 47.625,75.605" id="Path_77" fill="#FFFFFF" fill-rule="nonzero"></path>
                </g>
            </g>
        </g>
    </g>
</svg>